Coordinates
version=1
nRows=8
nColumns=40
inDegrees=yes

Units are S.I. units (second, meters, Newtons, ...)
If the header above contains a line with 'inDegrees', this indicates whether rotational values are in degrees (yes) or radians (no).

endheader
time	pelvis_tilt	pelvis_list	pelvis_rotation	pelvis_tx	pelvis_ty	pelvis_tz	hip_flexion_r	hip_adduction_r	hip_rotation_r	knee_angle_r	knee_angle_r_beta	ankle_angle_r	subtalar_angle_r	mtp_angle_r	hip_flexion_l	hip_adduction_l	hip_rotation_l	knee_angle_l	knee_angle_l_beta	ankle_angle_l	subtalar_angle_l	mtp_angle_l	lumbar_extension	lumbar_bending	lumbar_rotation	arm_flex_r	arm_add_r	arm_rot_r	elbow_flex_r	pro_sup_r	wrist_flex_r	wrist_dev_r	arm_flex_l	arm_add_l	arm_rot_l	elbow_flex_l	pro_sup_l	wrist_flex_l	wrist_dev_l
      5.50000000	     -7.25224626	      2.21266171	      5.45443871	     -0.31992068	      0.98743066	     -0.74337537	     17.17582751	      1.39227336	     -7.43634902	     21.75269803	      0.37965620	     -4.52394619	      0.00000000	      0.00000000	     19.51748313	     -3.40045846	     -1.01789561	     80.66351225	      1.40784387	     -5.93630718	      0.00000000	      0.00000000	     -4.68174763	     -1.08141331	     -7.24157903	     86.28030655	     -6.81680918	     26.90615525	     29.76143228	     72.88303848	      0.00000000	      0.00000000	     88.77698334	    -17.94655578	     37.45852504	     36.54661145	     78.08351008	      0.00000000	      0.00000000
      5.50500000	     -7.29522066	      2.18379279	      5.45010564	     -0.32030798	      0.98710542	     -0.74311894	     17.36524543	      1.39359439	     -7.61249123	     22.01995121	      0.38432065	     -4.42954816	      0.00000000	      0.00000000	     19.53676887	     -3.44140901	     -0.96622760	     80.73041734	      1.40901159	     -5.96359641	      0.00000000	      0.00000000	     -4.75735499	     -1.04277854	     -7.20941874	     86.37659282	     -6.77453758	     26.43639824	     29.54693278	     75.24735554	      0.00000000	      0.00000000	     88.78576635	    -17.84042198	     36.82391644	     36.51828409	     80.68287347	      0.00000000	      0.00000000
      5.51000000	     -7.40653242	      2.21198170	      5.44204423	     -0.32076640	      0.98668919	     -0.74293717	     17.59500421	      1.34297783	     -7.63759934	     22.19382508	      0.38735532	     -4.34467930	      0.00000000	      0.00000000	     19.60273683	     -3.41636515	     -0.96439534	     80.77760965	      1.40983525	     -6.11209828	      0.00000000	      0.00000000	     -4.78173569	     -1.05053595	     -7.20694778	     86.53231340	     -6.72432955	     26.48491988	     29.58379722	     75.27557444	      0.00000000	      0.00000000	     88.84701490	    -17.78866082	     36.70612805	     36.45568196	     80.69234471	      0.00000000	      0.00000000
      5.51500000	     -7.46315182	      2.10559743	      5.49213050	     -0.32104602	      0.98635633	     -0.74269444	     17.72834728	      1.42826957	     -7.80635505	     22.26774090	      0.38864540	     -4.39494526	      0.00000000	      0.00000000	     19.63614472	     -3.54007988	     -0.85128621	     80.83586539	      1.41085200	     -6.05579843	      0.00000000	      0.00000000	     -4.81038983	     -0.92312258	     -7.22715883	     86.61429208	     -6.68102394	     26.57265231	     29.49344561	     75.09178178	      0.00000000	      0.00000000	     88.87135372	    -17.77261587	     36.68968626	     36.52183780	     80.50585413	      0.00000000	      0.00000000
      5.52000000	     -7.54953947	      2.08649727	      5.49518905	     -0.32144090	      0.98599873	     -0.74249088	     17.93648294	      1.42043413	     -7.93045250	     22.47222892	      0.39221438	     -4.30769658	      0.00000000	      0.00000000	     19.68522668	     -3.57248025	     -0.80937027	     80.87076160	      1.41146106	     -6.05392842	      0.00000000	      0.00000000	     -4.84066797	     -0.90453668	     -7.22825587	     86.69916587	     -6.67355701	     26.61700000	     29.49851850	     75.19520196	      0.00000000	      0.00000000	     88.93051909	    -17.67916952	     36.55220778	     36.46272685	     80.59911447	      0.00000000	      0.00000000
      5.52500000	     -7.74645553	      2.13150485	      5.39549136	     -0.32198469	      0.98542154	     -0.74217898	     18.30994991	      1.36874048	     -7.79684799	     22.73395876	      0.39678243	     -4.24162358	      0.00000000	      0.00000000	     19.84693688	     -3.57197540	     -0.90438878	     80.91872738	      1.41229822	     -6.07484308	      0.00000000	      0.00000000	     -4.76075275	     -0.95002187	     -7.14152604	     86.80548303	     -6.71777083	     26.78709161	     29.52510188	     75.53614915	      0.00000000	      0.00000000	     88.97686588	    -17.68429950	     36.48034353	     36.49448002	     80.67597292	      0.00000000	      0.00000000
      5.53000000	     -7.96810441	      2.19673854	      5.31914802	     -0.32252612	      0.98480408	     -0.74191622	     18.71933122	      1.27249621	     -7.80272386	     23.02494394	      0.40186108	     -4.14360378	      0.00000000	      0.00000000	     20.03880088	     -3.50162596	     -0.94896974	     80.96742341	      1.41314813	     -6.03247186	      0.00000000	      0.00000000	     -4.66351414	     -1.02091890	     -7.02870721	     86.93834291	     -6.66205309	     26.98061370	     29.43166716	     75.09828040	      0.00000000	      0.00000000	     89.01389277	    -17.60687407	     36.33883581	     36.49877652	     80.62093653	      0.00000000	      0.00000000
      5.53500000	     -8.18279797	      2.25614627	      5.20590215	     -0.32310401	      0.98420041	     -0.74166008	     19.15034976	      1.19763937	     -7.66616932	     23.35051200	      0.40754332	     -4.10143614	      0.00000000	      0.00000000	     20.21738326	     -3.48207297	     -1.04858623	     81.01943410	      1.41405588	     -6.07120477	      0.00000000	      0.00000000	     -4.54917644	     -1.07766470	     -6.95340017	     86.99617352	     -6.62979565	     28.05597656	     29.51073099	     69.77083758	      0.00000000	      0.00000000	     89.12218329	    -17.82480584	     37.79857108	     36.82823546	     73.59287853	      0.00000000	      0.00000000
